<?xml version="1.0" encoding="utf-8"?>
<!-- Generator: Adobe Illustrator 16.0.3, SVG Export Plug-In . SVG Version: 6.00 Build 0)  -->
<!DOCTYPE svg PUBLIC "-//W3C//DTD SVG 1.1//EN" "http://www.w3.org/Graphics/SVG/1.1/DTD/svg11.dtd">
<svg version="1.1" id="Layer_1" xmlns="http://www.w3.org/2000/svg" xmlns:xlink="http://www.w3.org/1999/xlink" x="0px" y="0px"
	 width="112px" height="140px" viewBox="0 0 112 140" enable-background="new 0 0 112 140" xml:space="preserve">
<g>
	<circle fill="#333333" cx="26.651" cy="57.076" r="2.489"/>
	<g>
		<path fill="#333333" d="M55.704,8.204c20.159,0,34.422,6.584,42.39,19.568c6.368,10.378,6.69,21.514,6.69,23.641v80.384H7.216
			V50.865c0-0.11,0.088-11.167,6.183-21.842C21.286,15.208,35.52,8.204,55.704,8.204 M55.704,1.488C0.205,1.488,0.5,50.88,0.5,50.88
			v87.631h111c0,0,0-81.258,0-87.1C111.5,45.569,109.611,1.488,55.704,1.488L55.704,1.488z"/>
		<circle fill="#333333" cx="85.363" cy="57.076" r="2.489"/>
		<rect x="44.838" y="123.784" fill="#333333" width="23.014" height="2.015"/>
	</g>
</g>
</svg>
